PathFileType	4	(X/Y/Z)	C:\Users\Owen\Repositories\CapacitiveSensingKinematics\CSOptimalControl\OutputData\FilteredIMUAccels.trc
DataRate	CameraRate	NumFrames	NumMarkers	Units	OrigDataRate	OrigDataStartFrame	OrigNumFrames
100	100	13	8	m	100	3528	7057
Frame#	Time	/bodyset/torso/torso_imu_offset			/bodyset/pelvis/pelvis_imu_offset			/bodyset/tibia_r/tibia_r_imu_offset			/bodyset/femur_r/femur_r_imu_offset			/bodyset/tibia_l/tibia_l_imu_offset			/bodyset/femur_l/femur_l_imu_offset			/bodyset/toes_r/toes_r_imu_offset			/bodyset/toes_l/toes_l_imu_offset			
		X1	Y1	Z1	X2	Y2	Z2	X3	Y3	Z3	X4	Y4	Z4	X5	Y5	Z5	X6	Y6	Z6	X7	Y7	Z7	X8	Y8	Z8	

3529	35.28	8.834694966984141	0.4534405788070667	7.676738493392838	9.636792529423939	-0.3335922662958212	3.466605573245713	4.478841159321253	5.369449137549223	4.667056352715798	10.28899552974118	-1.953179239184001	2.203293002670704	10.06690648246577	1.059743166826995	-0.3328189141141063	9.402637993750606	-0.4189122084783747	-2.950449039828006	2.579254466033506	-1.901593598295144	6.674092518183677	3.665342537569031	0.9041860671240985	11.87935591487801	
3530	35.29	8.535150234794804	0.3591373982930364	7.646170356610866	9.514332976608088	-0.645890495097712	3.371548609161326	4.513207612348949	4.031089411508875	5.010467823316253	9.698747371757438	-2.137995037737107	2.065820116771204	9.930003078449836	0.9669928049969236	-0.3409034629402732	9.389134073491524	0.09539828958226797	-2.694707520863904	3.487473758933871	-0.7712652648464776	7.248841179897965	3.677057187293232	0.9402966954815177	11.86842445316236	
3531	35.3	8.256339297845463	0.2648507118231427	7.559103250279617	9.371354566612538	-0.9563130924325789	3.270333411194863	4.495589647840103	2.948251547462933	5.309460305264199	9.124852737815697	-2.284045404832803	1.962971814790221	9.799645330825665	0.6387316222818026	-0.360582303456571	9.328864033402821	0.4812181850346632	-2.438651517302838	4.511750883766379	0.1715715474164867	7.96991536955754	3.716364844881766	0.9670137453760669	11.84801800014579	
3532	35.31	8.021873120446537	0.1908272895128022	7.438757318057597	9.235068502283253	-1.207085410276378	3.172750162921519	4.537810208282851	2.361965449094574	5.453980988668649	8.621914446498435	-2.385212415880525	1.907781468152976	9.690773824527637	0.2353130926425192	-0.3319477561740548	9.253464771943868	0.6798930494916642	-2.200668498185129	5.300371944699656	1.128959734555617	8.591216405969591	3.773902938983086	0.9764049272946682	11.82173149122196	
3533	35.32	7.844322507932668	0.1505199407662604	7.311390447460096	9.123204535842032	-1.362245841732571	3.086415275415275	4.673076392769331	2.361191340540068	5.376513988054898	8.227651161502836	-2.442203802828924	1.912631968401168	9.604923447310853	-0.1256267113563423	-0.2339812883778761	9.195620129517891	0.6900451522829937	-1.996742889723325	5.679962651163811	2.173505061554494	8.957356766194223	3.829502961087375	0.9684564120664814	11.79757895820142	
3534	35.33	7.728386918143627	0.1463936685256484	7.20022006515299	9.034310507904973	-1.416003855164691	3.013320235527056	4.863137675670976	2.826958934007806	5.094406841971386	7.960364209602496	-2.457329600760414	1.984873049529073	9.536357915418385	-0.3916428918276935	-0.07317045784502083	9.175476186743571	0.5513294647384726	-1.841622157542458	5.693720658247809	3.170717180475092	9.037487059105578	3.868709735849326	0.9467428983169255	11.78010800813726	
3535	35.34	7.670650571423042	0.1710424842846715	7.119482547366774	8.951810480759551	-1.389083147320885	2.950894593099333	5.034999579138208	3.494060171895112	4.689830104010091	7.816294903603693	-2.433005156526543	2.118837351129892	9.481771410438245	-0.5655551958521569	0.1293017483190803	9.193981856029824	0.3220458421992413	-1.745940153476144	5.540122015415387	3.877792139295545	8.909282018858052	3.889872495255083	0.914451701093097	11.76979625412847	
3536	35.35	7.658394718350506	0.2128607150052186	7.071741187125648	8.859182860204092	-1.315641029520529	2.895145007392278	5.135696750477338	4.089224481959874	4.275290668147786	7.771508703239826	-2.3722206773581	2.289728262696775	9.443204526318366	-0.6847027989874624	0.344620304942503	9.236856892713462	0.06079917009284354	-1.711925757922629	5.436820624137752	4.115379380340745	8.699065088371803	3.893426608449654	0.8752670396435621	11.76618382774752	
3537	35.36	7.672643609006847	0.2618463024150361	7.051458602244862	8.753438376631895	-1.227978449726923	2.842269616351254	5.174587136698953	4.456782866332099	3.959315943235094	7.787578386484888	-2.280188241454871	2.456131302636228	9.423581801719418	-0.7991133018677342	0.543697989248455	9.284995012951242	-0.1853710600566086	-1.732293466486964	5.502012923455649	3.878839010238829	8.516577433501462	3.874371320418995	0.8376143022034364	11.76906058855857	
3538	35.37	7.696050104940954	0.3118258446699189	7.051147755488527	8.646124978544652	-1.148766475677634	2.78909468579226	5.217379605574314	4.605053659540441	3.804801096955881	7.819124292285973	-2.166633859217169	2.574570019262414	9.422676665588991	-0.9480331579241588	0.7053438462521294	9.323374492919628	-0.3862270958601074	-1.792305405750423	5.724181984804441	3.322035426945273	8.420531044041699	3.83248393213012	0.8115615991227481	11.7764526632817	
3539	35.38	7.719582174170684	0.3588515486863812	7.06541832377969	8.554668739206026	-1.092075479028776	2.732893018870734	5.335493033676979	4.665514433512768	3.800623282888651	7.822645294112139	-2.045100753101167	2.618863896401371	9.437290183953788	-1.139865320675965	0.821397422124199	9.34416594694094	-0.5293549761712224	-1.87411457032378	6.015461619688926	2.645712764045709	8.427126867752117	3.781734412315918	0.7998517343030014	11.78290887395593	
3540	35.39	7.742244754708576	0.3988224252771726	7.091826861525708	8.493669690493443	-1.066092705646764	2.670312199807372	5.555033314580708	4.80205841736979	3.875900256760265	7.76647787137828	-1.928555721480465	2.591147202847538	9.463537283041743	-1.350380088609053	0.8935720580651071	9.345715847191055	-0.6180120340925231	-1.961567291274362	6.302356418351233	1.984963964779637	8.547461974845447	3.740964302846112	0.7960808967121557	11.78345409776431	
3541	35.4	7.765192363715571	0.4275006952020902	7.129565699809042	8.470840572191225	-1.073674505311419	2.597582141009036	5.844270744076487	5.116968312204343	3.944945207143924	7.639643692632196	-1.828057010581296	2.520389260300166	9.498051751465436	-1.5443130778894	0.925962702060445	9.331991220163426	-0.6650204351396205	-2.042000226923986	6.593204839061709	1.376199079535231	8.818188539320381	3.717086376718596	0.7913325239902579	11.77922488530814	
